<svg width="57" height="56" viewBox="0 0 57 56" fill="none" xmlns="http://www.w3.org/2000/svg">
<path d="M0.333252 16C0.333252 7.16344 7.4967 0 16.3333 0H40.3333C49.1698 0 56.3333 7.16344 56.3333 16V40C56.3333 48.8366 49.1698 56 40.3333 56H16.3333C7.4967 56 0.333252 48.8366 0.333252 40V16Z" fill="#F0FDF4"/>
<path d="M24 23V19M32 23V19M23 27H33M21 37H35C35.5304 37 36.0391 36.7893 36.4142 36.4142C36.7893 36.0391 37 35.5304 37 35V23C37 22.4696 36.7893 21.9609 36.4142 21.5858C36.0391 21.2107 35.5304 21 35 21H21C20.4696 21 19.9609 21.2107 19.5858 21.5858C19.2107 21.9609 19 22.4696 19 23V35C19 35.5304 19.2107 36.0391 19.5858 36.4142C19.9609 36.7893 20.4696 37 21 37Z" stroke="#10B981" stroke-width="2"/>
</svg>
