<svg width="57" height="56" viewBox="0 0 57 56" fill="none" xmlns="http://www.w3.org/2000/svg">
<path d="M0.666504 16C0.666504 7.16344 7.82995 0 16.6665 0H40.6665C49.5031 0 56.6665 7.16344 56.6665 16V40C56.6665 48.8366 49.5031 56 40.6665 56H16.6665C7.82995 56 0.666504 48.8366 0.666504 40V16Z" fill="#F8F7FF"/>
<path d="M28.6665 21C28.6665 20.4696 28.8772 19.9609 29.2523 19.5858C29.6274 19.2107 30.1361 19 30.6665 19C31.1969 19 31.7056 19.2107 32.0807 19.5858C32.4558 19.9609 32.6665 20.4696 32.6665 21V22C32.6665 22.2652 32.7719 22.5196 32.9594 22.7071C33.1469 22.8946 33.4013 23 33.6665 23H36.6665C36.9317 23 37.1861 23.1054 37.3736 23.2929C37.5611 23.4804 37.6665 23.7348 37.6665 24V27C37.6665 27.2652 37.5611 27.5196 37.3736 27.7071C37.1861 27.8946 36.9317 28 36.6665 28H35.6665C35.1361 28 34.6274 28.2107 34.2523 28.5858C33.8772 28.9609 33.6665 29.4696 33.6665 30C33.6665 30.5304 33.8772 31.0391 34.2523 31.4142C34.6274 31.7893 35.1361 32 35.6665 32H36.6665C36.9317 32 37.1861 32.1054 37.3736 32.2929C37.5611 32.4804 37.6665 32.7348 37.6665 33V36C37.6665 36.2652 37.5611 36.5196 37.3736 36.7071C37.1861 36.8946 36.9317 37 36.6665 37H33.6665C33.4013 37 33.1469 36.8946 32.9594 36.7071C32.7719 36.5196 32.6665 36.2652 32.6665 36V35C32.6665 34.4696 32.4558 33.9609 32.0807 33.5858C31.7056 33.2107 31.1969 33 30.6665 33C30.1361 33 29.6274 33.2107 29.2523 33.5858C28.8772 33.9609 28.6665 34.4696 28.6665 35V36C28.6665 36.2652 28.5611 36.5196 28.3736 36.7071C28.1861 36.8946 27.9317 37 27.6665 37H24.6665C24.4013 37 24.1469 36.8946 23.9594 36.7071C23.7719 36.5196 23.6665 36.2652 23.6665 36V33C23.6665 32.7348 23.5611 32.4804 23.3736 32.2929C23.1861 32.1054 22.9317 32 22.6665 32H21.6665C21.1361 32 20.6274 31.7893 20.2523 31.4142C19.8772 31.0391 19.6665 30.5304 19.6665 30C19.6665 29.4696 19.8772 28.9609 20.2523 28.5858C20.6274 28.2107 21.1361 28 21.6665 28H22.6665C22.9317 28 23.1861 27.8946 23.3736 27.7071C23.5611 27.5196 23.6665 27.2652 23.6665 27V24C23.6665 23.7348 23.7719 23.4804 23.9594 23.2929C24.1469 23.1054 24.4013 23 24.6665 23H27.6665C27.9317 23 28.1861 22.8946 28.3736 22.7071C28.5611 22.5196 28.6665 22.2652 28.6665 22V21Z" stroke="#8B5CF6" stroke-width="2"/>
</svg>
