<svg width="57" height="56" viewBox="0 0 57 56" fill="none" xmlns="http://www.w3.org/2000/svg">
<path d="M0.666504 16C0.666504 7.16344 7.82995 0 16.6665 0H40.6665C49.5031 0 56.6665 7.16344 56.6665 16V40C56.6665 48.8366 49.5031 56 40.6665 56H16.6665C7.82995 56 0.666504 48.8366 0.666504 40V16Z" fill="#FEF2F2"/>
<path d="M34 36H39V34C39 33.3765 38.8057 32.7686 38.4441 32.2606C38.0826 31.7527 37.5718 31.37 36.9827 31.1658C36.3937 30.9615 35.7556 30.9459 35.1573 31.121C34.5589 31.2962 34.03 31.6534 33.644 32.143M34 36H24M34 36V34C34 33.344 33.874 32.717 33.644 32.143M33.644 32.143C33.2726 31.215 32.6318 30.4195 31.804 29.8591C30.9762 29.2988 29.9996 28.9993 29 28.9993C28.0004 28.9993 27.0238 29.2988 26.196 29.8591C25.3682 30.4195 24.7274 31.215 24.356 32.143M24 36H19V34C19 33.3765 19.1943 32.7686 19.5559 32.2606C19.9174 31.7527 20.4282 31.37 21.0173 31.1658C21.6063 30.9615 22.2444 30.9459 22.8427 31.121C23.4411 31.2962 23.97 31.6534 24.356 32.143M24 36V34C24 33.344 24.126 32.717 24.356 32.143M32 23C32 23.7956 31.6839 24.5587 31.1213 25.1213C30.5587 25.6839 29.7956 26 29 26C28.2044 26 27.4413 25.6839 26.8787 25.1213C26.3161 24.5587 26 23.7956 26 23C26 22.2044 26.3161 21.4413 26.8787 20.8787C27.4413 20.3161 28.2044 20 29 20C29.7956 20 30.5587 20.3161 31.1213 20.8787C31.6839 21.4413 32 22.2044 32 23ZM38 26C38 26.5304 37.7893 27.0391 37.4142 27.4142C37.0391 27.7893 36.5304 28 36 28C35.4696 28 34.9609 27.7893 34.5858 27.4142C34.2107 27.0391 34 26.5304 34 26C34 25.4696 34.2107 24.9609 34.5858 24.5858C34.9609 24.2107 35.4696 24 36 24C36.5304 24 37.0391 24.2107 37.4142 24.5858C37.7893 24.9609 38 25.4696 38 26ZM24 26C24 26.5304 23.7893 27.0391 23.4142 27.4142C23.0391 27.7893 22.5304 28 22 28C21.4696 28 20.9609 27.7893 20.5858 27.4142C20.2107 27.0391 20 26.5304 20 26C20 25.4696 20.2107 24.9609 20.5858 24.5858C20.9609 24.2107 21.4696 24 22 24C22.5304 24 23.0391 24.2107 23.4142 24.5858C23.7893 24.9609 24 25.4696 24 26Z" stroke="#EF4444" stroke-width="2"/>
</svg>
