<svg width="57" height="56" viewBox="0 0 57 56" fill="none" xmlns="http://www.w3.org/2000/svg">
<path d="M0.333252 16C0.333252 7.16344 7.4967 0 16.3333 0H40.3333C49.1698 0 56.3333 7.16344 56.3333 16V40C56.3333 48.8366 49.1698 56 40.3333 56H16.3333C7.4967 56 0.333252 48.8366 0.333252 40V16Z" fill="#F0F9FF"/>
<path d="M28 34H28.01M24 37H32C32.5304 37 33.0391 36.7893 33.4142 36.4142C33.7893 36.0391 34 35.5304 34 35V21C34 20.4696 33.7893 19.9609 33.4142 19.5858C33.0391 19.2107 32.5304 19 32 19H24C23.4696 19 22.9609 19.2107 22.5858 19.5858C22.2107 19.9609 22 20.4696 22 21V35C22 35.5304 22.2107 36.0391 22.5858 36.4142C22.9609 36.7893 23.4696 37 24 37Z" stroke="#3B82F6" stroke-width="2"/>
</svg>
