<svg width="56" height="56" viewBox="0 0 56 56" fill="none" xmlns="http://www.w3.org/2000/svg">
<path d="M0 16C0 7.16344 7.16344 0 16 0H40C48.8366 0 56 7.16344 56 16V40C56 48.8366 48.8366 56 40 56H16C7.16344 56 0 48.8366 0 40V16Z" fill="#EEF2FF"/>
<path d="M25 21H23C22.4696 21 21.9609 21.2107 21.5858 21.5858C21.2107 21.9609 21 22.4696 21 23V35C21 35.5304 21.2107 36.0391 21.5858 36.4142C21.9609 36.7893 22.4696 37 23 37H33C33.5304 37 34.0391 36.7893 34.4142 36.4142C34.7893 36.0391 35 35.5304 35 35V23C35 22.4696 34.7893 21.9609 34.4142 21.5858C34.0391 21.2107 33.5304 21 33 21H31M25 21C25 21.5304 25.2107 22.0391 25.5858 22.4142C25.9609 22.7893 26.4696 23 27 23H29C29.5304 23 30.0391 22.7893 30.4142 22.4142C30.7893 22.0391 31 21.5304 31 21M25 21C25 20.4696 25.2107 19.9609 25.5858 19.5858C25.9609 19.2107 26.4696 19 27 19H29C29.5304 19 30.0391 19.2107 30.4142 19.5858C30.7893 19.9609 31 20.4696 31 21M25 30L27 32L31 28" stroke="#4F46E5" stroke-width="2"/>
</svg>
