<svg width="56" height="56" viewBox="0 0 56 56" fill="none" xmlns="http://www.w3.org/2000/svg">
<path d="M0 16C0 7.16344 7.16344 0 16 0H40C48.8366 0 56 7.16344 56 16V40C56 48.8366 48.8366 56 40 56H16C7.16344 56 0 48.8366 0 40V16Z" fill="#FFF7ED"/>
<path d="M25 35V29C25 28.4696 24.7893 27.9609 24.4142 27.5858C24.0391 27.2107 23.5304 27 23 27H21C20.4696 27 19.9609 27.2107 19.5858 27.5858C19.2107 27.9609 19 28.4696 19 29V35C19 35.5304 19.2107 36.0391 19.5858 36.4142C19.9609 36.7893 20.4696 37 21 37H23C23.5304 37 24.0391 36.7893 24.4142 36.4142C24.7893 36.0391 25 35.5304 25 35ZM25 35V25C25 24.4696 25.2107 23.9609 25.5858 23.5858C25.9609 23.2107 26.4696 23 27 23H29C29.5304 23 30.0391 23.2107 30.4142 23.5858C30.7893 23.9609 31 24.4696 31 25V35M25 35C25 35.5304 25.2107 36.0391 25.5858 36.4142C25.9609 36.7893 26.4696 37 27 37H29C29.5304 37 30.0391 36.7893 30.4142 36.4142C30.7893 36.0391 31 35.5304 31 35M31 35V21C31 20.4696 31.2107 19.9609 31.5858 19.5858C31.9609 19.2107 32.4696 19 33 19H35C35.5304 19 36.0391 19.2107 36.4142 19.5858C36.7893 19.9609 37 20.4696 37 21V35C37 35.5304 36.7893 36.0391 36.4142 36.4142C36.0391 36.7893 35.5304 37 35 37H33C32.4696 37 31.9609 36.7893 31.5858 36.4142C31.2107 36.0391 31 35.5304 31 35Z" stroke="#F97316" stroke-width="2"/>
</svg>
